<svg xmlns="http://www.w3.org/2000/svg" width="95.998" height="95.998" viewBox="0 0 95.998 95.998">
  <g id="ic_logo" transform="translate(-140 -110)">
    <path id="path2" d="M0,0V96H96V0Z" transform="translate(140 110)" fill="none"/>
    <g id="Layer1000" transform="translate(140 122)">
      <path id="path2-2" data-name="path2" d="M0,0V72H96V0Z" fill="none"/>
      <g id="Layer1001" transform="translate(3.442 3.607)">
        <g id="Group_766" data-name="Group 766" transform="translate(0 37.678)">
          <path id="path4" d="M40.443,494.683V480.594h2.522v5.083a3.49,3.49,0,0,1,2.768-1.423,3.611,3.611,0,0,1,2.885,1.351,5.868,5.868,0,0,1,1.142,3.886,6.2,6.2,0,0,1-1.163,4.034,3.551,3.551,0,0,1-2.829,1.413,3.261,3.261,0,0,1-1.614-.449,4.084,4.084,0,0,1-1.372-1.305v1.5Zm2.486-5.3a4.59,4.59,0,0,0,.47,2.351,1.978,1.978,0,0,0,1.746,1.082,1.76,1.76,0,0,0,1.43-.767,3.981,3.981,0,0,0,.589-2.417,4.217,4.217,0,0,0-.6-2.532,1.834,1.834,0,0,0-1.522-.777,1.857,1.857,0,0,0-1.513.758A3.659,3.659,0,0,0,42.929,489.38Zm10.75-1.761-2.283-.433a3.892,3.892,0,0,1,1.332-2.214,4.592,4.592,0,0,1,2.8-.718,5.712,5.712,0,0,1,2.519.426,2.574,2.574,0,0,1,1.163,1.085,5.922,5.922,0,0,1,.338,2.417l-.037,3.148a11.856,11.856,0,0,0,.12,1.984,5.986,5.986,0,0,0,.451,1.368h-2.5c-.064-.177-.147-.439-.242-.787-.04-.161-.071-.266-.089-.315a4.519,4.519,0,0,1-1.381,1.017,3.7,3.7,0,0,1-1.568.341,3.114,3.114,0,0,1-2.317-.856,2.937,2.937,0,0,1-.847-2.161,3.062,3.062,0,0,1,.387-1.541,2.587,2.587,0,0,1,1.083-1.036,8.107,8.107,0,0,1,2.007-.63,13.106,13.106,0,0,0,2.452-.662v-.272a1.493,1.493,0,0,0-.359-1.125,2.055,2.055,0,0,0-1.363-.335,1.689,1.689,0,0,0-1.053.289A1.992,1.992,0,0,0,53.678,487.619Zm3.388,2.184a15.082,15.082,0,0,1-1.537.413,4.535,4.535,0,0,0-1.375.469,1.154,1.154,0,0,0-.494.951,1.365,1.365,0,0,0,.4.98,1.332,1.332,0,0,0,1.007.413,2.115,2.115,0,0,0,1.3-.479,1.7,1.7,0,0,0,.6-.9,5.772,5.772,0,0,0,.1-1.315Zm13.665,4.88H68.209v-5.2a8.553,8.553,0,0,0-.163-2.135,1.5,1.5,0,0,0-.531-.754,1.45,1.45,0,0,0-.884-.269,1.962,1.962,0,0,0-1.188.384,1.918,1.918,0,0,0-.721,1.017,9.194,9.194,0,0,0-.2,2.345v4.617H62V484.471h2.338v1.5a3.781,3.781,0,0,1,3.164-1.715,3.631,3.631,0,0,1,1.534.321,2.591,2.591,0,0,1,1.053.82,3.033,3.033,0,0,1,.5,1.135,8.791,8.791,0,0,1,.141,1.813Zm2.464,0V480.594h2.522v7.474l2.955-3.6h3.112L78.525,488.2l3.5,6.48H79.3l-2.412-4.608-1.169,1.338v3.27Z" transform="translate(-40.443 -480.309)" fill="#72706f" fill-rule="evenodd"/>
          <path id="path6" d="M624.786,491.41V476.78h2.667l5.6,9.8v-9.8H635.6v14.63h-2.753l-5.515-9.617v9.617Zm16.786,0V479.252h-4.029V476.78h10.8v2.472h-4.01V491.41Zm11.61,0V479.252h-4.029V476.78h10.8v2.472h-4.01V491.41Z" transform="translate(-581.392 -476.78)" fill="#28166f" fill-rule="evenodd"/>
        </g>
        <path id="path8" d="M103.135,174.654a2.732,2.732,0,1,1-2.732,2.732A2.732,2.732,0,0,1,103.135,174.654Z" transform="translate(-95.3 -163.469)" fill="#48b7ec" fill-rule="evenodd"/>
        <path id="path10" d="M287.253,143.828a1.812,1.812,0,1,1-1.812,1.812A1.812,1.812,0,0,1,287.253,143.828Z" transform="translate(-264.711 -135.193)" fill="#0093dd" fill-rule="evenodd"/>
        <path id="path12" d="M342.856,329.6a3.475,3.475,0,1,1-3.475,3.475A3.475,3.475,0,0,1,342.856,329.6Z" transform="translate(-314.094 -305.316)" fill="#28166f" fill-rule="evenodd"/>
        <path id="path14" d="M42.619,47.56a49.509,49.509,0,0,0,13.594,8.679c3.109,1.377,4.8,1.446,4.956.3l-.048-.068a2.447,2.447,0,0,0-.868-.093c-.171.242-1.124-.147-2.891-1.143-4.479-2.523-8.313-4.575-10.2-6.681-2.727-3.047-2.066-4.419,1.271-3.138,3.037,1.166,6.287,4.132,9.981,8.277a13.883,13.883,0,0,1,1.75,2.236q.458-.076.934-.138a10.536,10.536,0,0,0-1.677-3.113c-4.107-5.793-8.9-8.867-12.723-9.928a10.057,10.057,0,0,0-5.845.131C40.045,43.637,40.329,45.314,42.619,47.56Z" transform="translate(-40.443 -42.38)" fill="#6ac1ef" fill-rule="evenodd"/>
        <path id="path16" d="M306.958,207.022a35.9,35.9,0,0,0-13.325-4.027c-2.691-.346-6.653-.43-7.123-.087.556.854,1.187,1.955,1.922,2.985-.28.412,1.525,1.935,2.461,2.512,6.041,3.732,10.615,6.679,14.321,8.083,4.172,1.581,7.283,1.1,8.73-.6C315.912,212.037,309.792,208.523,306.958,207.022Zm-1.029,2.317c-2.323-1.6-7.115-3.557-12.219-4.568-1.913-.379-5.37-.876-5.976-.972a15.485,15.485,0,0,0,4.728,4.076,47.3,47.3,0,0,0,12.548,5.469c.778.2,2.964.618,3.316-.068C308.882,212.192,307.723,210.576,305.929,209.339Z" transform="translate(-265.738 -189.149)" fill="#0093dd" fill-rule="evenodd"/>
        <path id="path18" d="M147.393,208.22a15.908,15.908,0,0,0-3.571-8.872q-1.271.149-2.417.393a3.737,3.737,0,0,0,.866.3,2.075,2.075,0,0,1,1.169.033,12.914,12.914,0,0,1,1.968,6.983c.045,2.743-1.328,5.091-2.63,5.842-1.527.881-3.756.771-5.676.25a6.542,6.542,0,0,1-2.312-2.73,5.411,5.411,0,0,1,.438-5.373,11.063,11.063,0,0,1,5.606-4.347q-.612-.171-1.36-.465a13.612,13.612,0,0,0-7.579,5.329,7.255,7.255,0,0,0-.676,7.682c.863,1.855,2.535,3.082,5.031,3.787,3.561,1.006,6.362.766,8.331-.974C146.715,214.178,147.587,211.524,147.393,208.22Z" transform="translate(-122.763 -186.099)" fill="#28166f" fill-rule="evenodd"/>
        <text id="text22" transform="translate(-0.442 63.392)" font-size="8" font-family="ArialMT, Arial"><tspan x="0" y="0">melayani </tspan><tspan y="0" fill="#e30016">lebih </tspan><tspan y="0">sungguh</tspan></text>
      </g>
    </g>
  </g>
</svg>
