<svg xmlns="http://www.w3.org/2000/svg" width="159" height="32" viewBox="0 0 159 32">
  <g id="img-logo" transform="translate(-155 -32)">
    <g id="Group_767" data-name="Group 767" transform="translate(219 34.992)">
      <path id="path4" d="M40.443,495.043V480.594h2.584v5.213a3.573,3.573,0,0,1,2.835-1.46,3.7,3.7,0,0,1,2.955,1.386,6.023,6.023,0,0,1,1.169,3.985,6.36,6.36,0,0,1-1.191,4.137,3.636,3.636,0,0,1-2.9,1.45,3.337,3.337,0,0,1-1.653-.461,4.185,4.185,0,0,1-1.405-1.339v1.537Zm2.546-5.438a4.712,4.712,0,0,0,.481,2.411,2.026,2.026,0,0,0,1.789,1.11,1.8,1.8,0,0,0,1.465-.787,4.087,4.087,0,0,0,.6-2.479,4.33,4.33,0,0,0-.61-2.6,1.878,1.878,0,0,0-1.559-.8,1.9,1.9,0,0,0-1.55.777A3.756,3.756,0,0,0,42.989,489.6ZM54,487.8l-2.339-.444a3.992,3.992,0,0,1,1.364-2.27,4.7,4.7,0,0,1,2.873-.736,5.847,5.847,0,0,1,2.581.437,2.639,2.639,0,0,1,1.191,1.113,6.08,6.08,0,0,1,.346,2.479l-.038,3.229a12.173,12.173,0,0,0,.123,2.035,6.144,6.144,0,0,0,.462,1.4H58c-.066-.182-.151-.451-.248-.807-.041-.165-.072-.272-.091-.323a4.627,4.627,0,0,1-1.415,1.043,3.784,3.784,0,0,1-1.606.35,3.187,3.187,0,0,1-2.373-.878,3.015,3.015,0,0,1-.868-2.216,3.143,3.143,0,0,1,.4-1.581,2.651,2.651,0,0,1,1.11-1.063,8.292,8.292,0,0,1,2.056-.646,13.405,13.405,0,0,0,2.512-.68v-.279a1.533,1.533,0,0,0-.368-1.154,2.1,2.1,0,0,0-1.4-.343,1.729,1.729,0,0,0-1.078.3A2.043,2.043,0,0,0,54,487.8Zm3.47,2.24a15.467,15.467,0,0,1-1.575.424,4.643,4.643,0,0,0-1.408.481,1.184,1.184,0,0,0-.506.975,1.4,1.4,0,0,0,.406,1.006,1.364,1.364,0,0,0,1.031.424,2.165,2.165,0,0,0,1.336-.491,1.748,1.748,0,0,0,.616-.918,5.926,5.926,0,0,0,.1-1.349Zm14,5H68.886v-5.338a8.782,8.782,0,0,0-.167-2.19,1.539,1.539,0,0,0-.544-.774,1.484,1.484,0,0,0-.905-.276,2.008,2.008,0,0,0-1.217.393,1.968,1.968,0,0,0-.739,1.043,9.44,9.44,0,0,0-.2,2.4v4.736H62.53V484.57h2.4v1.537a3.871,3.871,0,0,1,3.241-1.759,3.716,3.716,0,0,1,1.572.33,2.654,2.654,0,0,1,1.078.841,3.111,3.111,0,0,1,.509,1.164,9.027,9.027,0,0,1,.145,1.86Zm2.524,0V480.594h2.584v7.665l3.027-3.69h3.187L79.454,488.4l3.584,6.646H80.246l-2.471-4.726-1.2,1.372v3.353Z" transform="translate(-40.443 -480.302)" fill="#fff" fill-rule="evenodd"/>
      <path id="path6" d="M624.786,491.785v-15h2.732l5.737,10.055V476.78h2.609v15h-2.82l-5.65-9.863v9.863Zm17.2,0V479.316h-4.128V476.78h11.059v2.536H644.8v12.469Zm11.893,0V479.316h-4.128V476.78h11.059v2.536H656.7v12.469Z" transform="translate(-580.424 -476.78)" fill="#fff" fill-rule="evenodd"/>
    </g>
    <text id="text22" transform="translate(219 62)" fill="#fff" font-size="9" font-family="ArialMT, Arial"><tspan x="0" y="0">melayani lebih sungguh</tspan></text>
    <g id="Layer1001" transform="translate(155 32)">
      <path id="path8" d="M103.186,174.654a2.783,2.783,0,1,1-2.783,2.783A2.783,2.783,0,0,1,103.186,174.654Z" transform="translate(-95.205 -163.312)" fill="#fff" fill-rule="evenodd"/>
      <path id="path10" d="M287.286,143.828a1.846,1.846,0,1,1-1.846,1.846A1.846,1.846,0,0,1,287.286,143.828Z" transform="translate(-265.013 -135.07)" fill="#fff" fill-rule="evenodd"/>
      <path id="path12" d="M342.921,329.6a3.54,3.54,0,1,1-3.54,3.54A3.54,3.54,0,0,1,342.921,329.6Z" transform="translate(-314.529 -304.985)" fill="#fff" fill-rule="evenodd"/>
      <path id="path14" d="M42.659,47.656A50.433,50.433,0,0,0,56.507,56.5c3.167,1.4,4.888,1.473,5.049.306l-.049-.069a2.492,2.492,0,0,0-.884-.095c-.174.247-1.145-.15-2.945-1.164-4.563-2.57-8.468-4.661-10.388-6.806-2.778-3.1-2.1-4.5,1.3-3.2,3.093,1.188,6.4,4.209,10.167,8.431a14.142,14.142,0,0,1,1.783,2.278q.467-.077.952-.141a10.733,10.733,0,0,0-1.709-3.171c-4.183-5.9-9.07-9.032-12.96-10.114a10.245,10.245,0,0,0-5.954.133C40.037,43.66,40.327,45.368,42.659,47.656Z" transform="translate(-40.443 -42.38)" fill="#fff" fill-rule="evenodd"/>
      <path id="path16" d="M307.339,207.1a36.571,36.571,0,0,0-13.574-4.1c-2.741-.353-6.777-.438-7.256-.089.566.87,1.21,1.991,1.958,3.041-.285.42,1.554,1.971,2.507,2.559,6.154,3.8,10.813,6.8,14.588,8.234,4.25,1.611,7.419,1.116,8.893-.611C316.46,212.211,310.226,208.631,307.339,207.1Zm-1.048,2.361c-2.366-1.632-7.248-3.624-12.447-4.653-1.949-.386-5.47-.892-6.088-.99a15.773,15.773,0,0,0,4.816,4.152,48.183,48.183,0,0,0,12.782,5.571c.793.2,3.019.629,3.378-.07C309.3,212.369,308.118,210.723,306.291,209.463Z" transform="translate(-266.845 -189.018)" fill="#fff" fill-rule="evenodd"/>
      <path id="path18" d="M147.709,208.386a16.2,16.2,0,0,0-3.637-9.037q-1.294.152-2.463.4a3.805,3.805,0,0,0,.882.31,2.113,2.113,0,0,1,1.191.034,13.155,13.155,0,0,1,2,7.113c.045,2.794-1.353,5.186-2.679,5.951-1.555.9-3.826.786-5.782.255a6.664,6.664,0,0,1-2.355-2.781,5.512,5.512,0,0,1,.446-5.473,11.27,11.27,0,0,1,5.71-4.428q-.623-.174-1.386-.473a13.866,13.866,0,0,0-7.721,5.429,7.39,7.39,0,0,0-.689,7.825c.879,1.889,2.583,3.139,5.125,3.858,3.627,1.025,6.48.78,8.487-.992C147.019,214.455,147.907,211.751,147.709,208.386Z" transform="translate(-122.982 -185.973)" fill="#fff" fill-rule="evenodd"/>
    </g>
  </g>
</svg>
